# xmcd
#
# Track frame offsets:
#	150
#	13741
#	25596
#	40666
#	56116
#	74241
#	88537
#	110796
#	124882
#	140013
#
# Disc length: 2037 seconds
#
# Revision: 1
# Processed by: cddbd v1.5.2PL0 Copyright (c) Steve Scherf et al.
# Submitted via: audiograbber 1.83.01
#
DISCID=9207f30a
DTITLE=Tûzkerék xt - Lövedék
DYEAR=2005
DGENRE=Blues
TTITLE0=Lövedék
TTITLE1=sátántangó
TTITLE2=az élet olyan mint a r&r
TTITLE3=részeges
TTITLE4=a megrontás legmagasabb foka
TTITLE5=1000 mérföldnyi út (túl nehéz játék)
TTITLE6=rövid ital, hosszú történet
TTITLE7=óriási fal
TTITLE8=palackposta
TTITLE9=fûben állva
EXTD=
EXTT0=
EXTT1=
EXTT2=
EXTT3=
EXTT4=
EXTT5=
EXTT6=
EXTT7=
EXTT8=
EXTT9=
PLAYORDER=
